<svg height="640pt" preserveAspectRatio="xMidYMid meet" viewBox="0 0 640 640" width="640pt" xmlns="http://www.w3.org/2000/svg"><path d="m3087 6194c-1-1-56-5-122-9-151-10-185-13-210-18-11-3-45-8-76-11-31-4-67-9-80-11-27-6-94-16-124-20-11-1-27-5-35-8-13-5-157-35-200-42-8-1-23-5-32-9s-21-5-27-2c-5 3-11 1-13-4-2-6-20-12-41-13-20-1-37-6-37-11s-3-6-6-3c-4 3-14 2-24-3-9-5-28-11-41-14-47-10-64-15-108-30-24-9-47-13-52-10s-9 0-9-7c0-6-8-9-20-6-10 3-20 1-22-4s-12-10-23-12-33-9-48-16c-16-6-33-9-38-5-5 3-9 1-9-3 0-9-130-59-144-55-5 2-12-1-15-6-3-6-15-12-26-14-11-1-22-5-25-8-12-12-62-30-71-25-5 4-9 1-9-5 0-7-7-9-16-6-8 3-12 2-9-4 5-9-15-15-37-11-5 0-8-3-8-9 0-5-4-10-9-10s-20-4-33-9-27-9-32-9-12-5-16-12c-4-6-13-13-21-14-8-2-36-14-64-27-27-13-53-22-57-21-5 1-8-3-8-9 0-5-4-7-10-4-5 3-10 2-10-3 0-9-55-29-55-20 0 2-11-7-25-19-22-21-29-24-46-22-4 0-10-4-13-9-3-6-13-12-21-14s-21-9-29-16c-7-7-20-11-28-8s-12 2-9-3c6-9-53-38-67-33-5 1-6-1-3-6s-10-15-29-22c-19-8-35-17-35-22 0-4-6-8-14-8-7 0-25-9-40-21-14-11-31-17-37-13-7 4-9 3-6-3 6-10-5-19-26-22-4 0-17-10-29-20-11-11-25-18-30-15-4 3-8 0-8-7s-3-10-6-7c-3 4-14-2-25-13s-25-17-31-13-8 3-4-4c3-6-7-16-24-24-16-7-30-16-30-20 0-5-7-8-15-8-22 0-33-29-25-69 5-20 11-65 14-101s8-76 11-90c2-14 6-43 9-65s7-51 10-65 8-43 11-65c7-44 11-68 20-105 3-14 8-38 10-55 3-16 8-37 10-45s7-27 10-42c3-16 8-40 12-55 3-16 7-38 7-50 1-13 5-23 10-23 4 0 6-9 3-20-3-10-1-20 3-22 7-3 13-23 25-93 2-11 4-21 5-22 3-3 4-7 14-48 4-16 12-41 17-55 4-14 10-36 13-50 2-14 11-46 20-71s18-56 20-70c3-13 5-25 7-26 1-2 3-7 4-13 1-5 4-12 5-15s3-8 4-12c1-5 5-14 9-20 5-7 5-17 2-23-3-5-1-10 6-10s9-3 6-7c-4-3-2-12 4-20 6-7 8-13 4-13s-2-6 4-14c6-7 12-25 13-40 1-14 5-26 9-26 6 0 21-49 23-75 1-5 4-12 8-15s9-17 10-30c2-14 6-27 9-30 13-12 39-92 33-102-4-7-2-8 4-4 7 4 12 1 12-9 0-8 4-23 9-33 16-32 30-67 33-82 2-8 7-18 11-21 5-4 10-18 10-32 1-14 5-23 10-20 4 2 7-3 7-12s7-27 16-40c9-14 14-25 11-25s5-21 18-47c13-25 22-50 19-55-3-4-1-8 4-8 10 0 36-53 32-66-1-4 3-10 10-14 6-4 12-16 13-28 0-11 5-18 9-16 4 3 8-1 8-8 0-8 22-57 49-111 28-53 47-97 43-97-3 0 2-6 13-13 10-8 15-18 12-24-3-5 3-17 14-26 11-10 17-22 14-27-3-6-2-10 3-10 9 0 37-50 34-62-1-5 3-8 9-8s8-7 5-16c-3-8-2-12 4-9 5 3 12-6 16-20 3-14 11-25 16-25 6 0 7-7 4-16-3-8-2-12 4-9 9 6 14-8 11-28-1-5 3-6 8-3 8 5 28-32 23-41-1-2 9-14 23-29s21-32 18-41c-4-10-2-14 3-10 6 3 18-7 28-24 9-16 14-29 9-29-4 0 0-5 9-11 10-5 18-17 18-24 0-8 3-15 8-15 7 0 36-46 40-63 1-4 6-13 12-20 41-49 49-61 43-70-3-5-1-7 4-4 10 6 21-9 23-31 1-4 8-11 16-15s14-14 14-21c0-8 7-16 15-20 8-3 15-12 15-21 0-8 5-15 10-15 6 0 10-9 10-21 0-11 4-17 10-14 5 3 15-5 22-19 6-14 15-26 20-26 4 0 8-6 8-14s7-17 16-20c8-3 13-10 10-14-3-5 4-15 15-22 10-8 19-23 19-33s4-16 9-12c6 3 15-5 22-17 7-13 19-28 28-35s13-13 9-13 5-13 20-29c53-58 87-102 84-112-1-6 2-8 7-5 5 4 22-11 38-31 15-21 31-40 36-41 4-2 4-9 1-14-4-6-2-8 3-5 6 4 19-6 29-21s30-38 46-52c15-13 28-30 28-37s6-12 13-10c6 1 11-4 10-10-2-7 3-12 10-10 6 1 12-2 11-8 0-9 224-236 229-232 6 5 47-40 47-52 0-8 3-12 6-8 9 9 44-25 37-36-3-6-1-7 4-4 6 4 32-13 59-38 26-25 52-45 57-45 4 0 5-5 1-12-4-6-3-8 4-4 6 3 19-4 29-17s26-26 36-30c11-4 15-12 11-18-4-8-3-9 4-5s12 2 12-3c0-6 5-11 11-11 7 0 24-13 40-29 15-16 30-27 33-24s8-2 12-11c3-9 11-16 17-16s17-7 26-15 28-26 43-40 29-24 30-23c7 7 47-30 40-37-4-5-2-5 4-2 6 4 22-3 36-16 13-12 28-24 33-27 6-3 9-8 8-12-2-5 0-7 5-7 19 3 33-2 27-11-3-5 2-10 13-10 10 0 28-9 40-20s25-20 29-20c5 0 15-9 23-19 7-11 17-18 22-15 4 3 8 0 8-5 0-6 7-11 15-11 7 0 18-7 23-17 8-14 34 0 183 99 820 546 1464 1229 1964 2083 89 152 258 477 310 595 15 36 39 89 52 118 40 88 167 418 211 547 72 211 160 516 178 615 3 14 9 39 14 55 8 27 22 95 36 171 3 16 14 72 24 124 16 82 34 199 45 290 1 14 6 50 9 82l7 56-108 65c-59 35-146 86-193 112-87 49-453 235-463 235-3 0-38 15-79 34-278 128-777 296-1081 362-201 44-342 71-472 89-84 12-105 14-165 20-36 4-81 9-100 12-33 5-487 12-493 7z" transform="matrix(.1 0 0 -.1 0 640)"/></svg>