<svg xmlns="http://www.w3.org/2000/svg" data-name="Layer 1" viewBox="0 0 216 360" x="0px" y="0px"><title>dancing_twin</title><path d="M125.36,151.49a2.21,2.21,0,0,1-1.24-2.26,2.5,2.5,0,0,0-1.18-1.9c-2.84-2.69-6.23-1.92-9.53-1.64a14.56,14.56,0,0,0-3.23.71,32.67,32.67,0,0,0-3,1.31,1.39,1.39,0,0,1-.39-2c1-1.79.34-3.75,0.44-5.64a1,1,0,0,0-.17-0.44c-0.9-1.68-5.48-3.6-7.35-3.08l-1.6.45c-1.51.42-2.65,1.15-2.38,3-5.27-2.82-10.86-3.64-16.57-4-3-.19-6-0.41-9-0.58a9.1,9.1,0,0,0-1.62.19c0,1.82.1,2,1.36,1.71,4.26-.86,8.37.13,12.48,1,1.6,0.33,3.17.79,4.83,1.21a36,36,0,0,0-4,13.79,17.11,17.11,0,0,1-2.22-.27c-4.07-1-8.14-2-12.17-3.16A62.62,62.62,0,0,1,60.48,147,8.13,8.13,0,0,1,56,141.45a2.77,2.77,0,0,1,.41-1.75c2-3.71,3.12-7.81,5.63-11.25,0.83-1.14,1.49-2.41,2.2-3.58,1.53,0.91,3,1.89,4.57,2.66a5.68,5.68,0,0,0,3.86.45,4.51,4.51,0,0,0,3.54-5.89,11.59,11.59,0,0,0-3.39-4.9l-2.09,2.91,2.91,3-0.61,1.64c-2.74.24-2.74,0.24-7.4-2.14,1.62-1.79,3.26-3.56,4.84-5.37a32.67,32.67,0,0,1,8.08-6.18,10.29,10.29,0,0,1,3.37-1c2.1-.4,4.23-0.69,6.35-1,4-.58,8-0.69,11.94-1.88a3.22,3.22,0,0,1,.47-0.08c2.68-.4,2.68-0.4,4.21-1.78a1.25,1.25,0,0,1,.62.21c1.61,2.43,4.14,3,6.77,3.43,1.61,0.25,2.89-.67,4.26-1.26a3.72,3.72,0,0,0,2.26-3.6c0.06-1,.48-2,0.59-3,0.45-4.21-.86-7.68-4.61-10.19,2.52-1.25,4.72-2.65,5.91-5.47C129.58,92,137.58,99.73,147,105.74c-3.4,4.66-6.8,9.32-10.21,14-1.36,1.85-2.52,1.87-4.17.12-1-1-2-2-2.84-3.16-0.64-.81-1.33-1.18-2.24-0.68s-0.89,1.42-.13,2.47,1.76,2.25,2.69,3.41l-4.26,7c-0.58-3-2.7-4.34-4.47-5.79-1.09-.9-3,0.19-3.24,1.71-0.33,1.79-.53,3.59-0.82,5.39a6.88,6.88,0,0,1-.59,1.33c-2.74-1.49-5.56-2.4-7.31-5.33a24.18,24.18,0,0,1-3.56-11.66,3.5,3.5,0,0,0-2-3.07,2.2,2.2,0,0,0-1.31,2.48,42.77,42.77,0,0,0,4.92,15.34,4.9,4.9,0,0,0,1.16,1.49,16.1,16.1,0,0,0,7.69,3.6c2.26,0.32,3.58-.56,4-2.85,0.3-1.66.45-3.36,0.67-5.08a8.59,8.59,0,0,1,3.4,4.48,2,2,0,0,0,1.79,1.64c1,0.15,1.38-.55,1.82-1.22,1.56-2.46,3.14-4.92,4.75-7.43a13.09,13.09,0,0,0,1.48.23c2.16,0.09,4.08-.33,5.24-2.44,0.8-1.46,1.69-2.86,2.54-4.29a10.89,10.89,0,0,1,1.36-1.94c0.12,2.83,1.86,4.84,3.13,7a71.17,71.17,0,0,1,8,18.75,8.13,8.13,0,0,1-.72,6.37,91.31,91.31,0,0,1-8.32,12.75c-1.8,2.22-3.78,4.3-5.76,6.37-1.6,1.67-1.85,1.58-2.9-.43-1.37-.22-2.7-0.4-4-0.64a4.46,4.46,0,0,0-4.32,1.49c-1.59,1.73-2.89,3.62-2.51,6.17a1.28,1.28,0,0,1,0,.71c-0.81,1.41-.18,2.74.29,4.11l-6.65,1.78a0.63,0.63,0,0,1-.24,0c-3.55-.46-7,1.08-10.53.67-0.71-.08-1.44-0.08-2.14-0.19-2.13-.35-2.38-0.08-2,2.35l2-.21a1.43,1.43,0,0,1,.35.41,9.59,9.59,0,0,1-2.13,8.67c-1.92,2.31-4.35,2.34-6.33,0-0.78-.9-1.58-1.79-2.27-2.76a13.73,13.73,0,0,1-1-2.08c1.25-.21,2,0.48,2.84,1s1.79,1.26,3.08.68c1.83-.81,2.06-0.79,1.9-2.77a40.79,40.79,0,0,0-2-10.69c-0.55-1.54-1.08-3.09-1.64-4.71,4.09-.26,8.16-0.46,12.22-0.8,1.46-.12,2.9-0.69,4.36,0a6.63,6.63,0,0,1,1.86.92c0.76,0.72,1.46,1.17,2.51.66a2.14,2.14,0,0,0,1.34-2.5,8,8,0,0,1,0-1.13h2.72c2.35,0,3.53-1.34,3-3.62a12,12,0,0,0-.84-2,14.41,14.41,0,0,1,2.22-.49c1.79-.12,3.16-0.86,3.48-2.67a4.26,4.26,0,0,0-1.59-4A21.67,21.67,0,0,0,128,153a95.88,95.88,0,0,0,9.22-10.67,12.09,12.09,0,0,0,2.33-10.5,8.1,8.1,0,0,0-1.27-2.17,3.09,3.09,0,0,0-1.52,3.08c0.59,4.15-1.51,7.13-4.07,10S127.86,148.51,125.36,151.49Zm15-41.31c0.26-1-.41-1.51-1.08-2.12q-4.63-4.22-9.16-8.57c-1.58-1.52-3-3.2-4.58-4.73-0.9-.88-2-1-2.44-0.3-0.67.92-.13,1.67,0.5,2.32,1,1.06,2.12,2.06,2.89,2.81a42.92,42.92,0,0,0-2,5.14c-0.8,3.22-.07,4.87,2.76,6.63a5.29,5.29,0,0,0,4.44.69c2-.57,3.93-1.2,5.31-3C138.06,109.82,138.91,111,140.39,110.18Zm-14.58,25.75a22.55,22.55,0,0,1-3,.79,5.08,5.08,0,0,0-3.85,6.17,4.32,4.32,0,0,0,4.76,2.94c3.1-.42,5.19-1.94,6.08-5.13C130.51,138.07,129.16,135.94,125.81,135.93ZM94.48,121v0a14.56,14.56,0,0,0-2.39,0c-1.69.29-3.42,2.95-2.61,4.14,1.23,1.82,2.41,3.78,4.68,4.56,3.8,1.31,6.35-.52,6.76-3.67a14.44,14.44,0,0,0,.06-2.15c0-1.42-1-2.28-2-3.12-0.73-.68-1.56-0.31-2.42.11A5.32,5.32,0,0,1,94.48,121ZM140,156.44c3-.15,5.06-2.23,5.06-4.86,0-1.68-2.12-3.88-5.18-3.84-2.61,0-3.44,1.44-3.27,5.41C136.68,155.48,137.79,156.55,140,156.44Zm-31.45-41.13c1.17,1.55,2.23,3.13,3.49,4.54,0.92,1,3.48,1.17,4.13.27,0.87-1.2,1.82-2.47,1.26-4.15a13.83,13.83,0,0,1-.73-2.25,2.58,2.58,0,0,0-2.44-2.43,4.11,4.11,0,0,0-3.87,1.23A18,18,0,0,0,108.52,115.31Z"/><path d="M138.32,40.63c1.58-.2,2.25.55,2.36,2.47l1.08-2.77,0.88,1.83,0.53-.71a2.27,2.27,0,0,1,.36.18C148.35,45.1,153.1,48.67,158,52c2.41,1.65,3.61,4.18,5.27,6.35A8.54,8.54,0,0,1,164.74,64a32.81,32.81,0,0,0,.17,3.41c-1-.63-1.81-0.1-2.71.52a26.45,26.45,0,0,0-7.55,8.48c-0.73,1.23-1.5,2.44-2.3,3.62-1.17,1.72-1.77,1.91-3.52.86-3.61-2.17-7.14-4.48-10.76-6.63a53.71,53.71,0,0,0-6.74-3.55c-4.37-1.82-8.2-.41-11.66,2.45l-1.56,1.29-5.5-11.61c1.59-1.55,3.42-1.23,5.1-1.43s3.14-.27,4.7-0.51c3.35-.53,4.37-3.48,2.19-6.16-1.63-2-3.91-2.61-6.52-2.94a5.06,5.06,0,0,1,.85-1.09c0.9-.63,1.84-1.19,2.78-1.76a4.14,4.14,0,0,1,3.53-.63,65.68,65.68,0,0,0,8.25,1,2.51,2.51,0,0,0,2.69-1.55A20.69,20.69,0,0,0,138.32,40.63Z"/><path d="M150.66,102.68a30.22,30.22,0,0,1-12-6.81,113.74,113.74,0,0,0-13.39-10.25c-2.33-1.51-4.7-3-7-4.47a19.4,19.4,0,0,1-1.54-1.26c2.17-1.78,4.11-3.6,6.28-5.1a8.32,8.32,0,0,1,8-.67,55.94,55.94,0,0,1,6.94,3c2,1.09,3.75,2.65,5.68,3.89a37.78,37.78,0,0,0,5.14,2.9c2.52,1.11,3.9.53,5.43-1.73,1.87-2.76,3.68-5.56,5.75-8.17a24.55,24.55,0,0,1,4-3.27l4.66,4.42A60.48,60.48,0,0,1,150.66,102.68Z"/><path d="M118.52,203.38l2.86-12,5.93-.86c2-.3,4-0.59,5.52-2.11l2.51,3.43c-3.8,1.08-5.11,4.49-3.27,8.1,0.65,1.27,1,2.53,2.46,3.26a8.26,8.26,0,0,0,9.38-1.29,29.89,29.89,0,0,1,4.43,6.41L133.29,226c-2.11-1.62-4.15-3.18-6.17-4.76a11.08,11.08,0,0,1-1.33-1.32c-1-1.12-2-2.32-4-1.73,0.76-1.44,1.41-2.53,1.89-3.68a2.5,2.5,0,0,0,.14-1.77C123,210.86,122,209,121,207.25,120.33,206,119.51,204.92,118.52,203.38Zm13.36,17.33c2.57,0,3-.4,3-3a1.74,1.74,0,0,1,.12-0.93c1-1.33.31-2.62-.16-3.81-1-2.55-3.79-4-5.88-3.21-2.33.87-4,4.37-3.2,6.63A6,6,0,0,0,131.88,220.72Z"/><path d="M58,208.85c0-3.86,3-6,3.94-9.22,3.66,2.67,7.31,4.39,11.6,1.35,0.17-2,1.18-4.39-.76-6.11-1.58-1.41-3.44-2.93-6.1-2.07l-0.59,2.49a26,26,0,0,1,3.34,1.09,1.27,1.27,0,0,1-.36,2.49,6.13,6.13,0,0,1-2.56-.3c-1.18-.38-2.29-1-3.7-1.56a46.92,46.92,0,0,1,4.05-4.83,46.91,46.91,0,0,1,5.2-3.67c1.25,1.51,3.39,2.06,5.36,2.94a12,12,0,0,0,6.5,1.16L83.37,204A22.74,22.74,0,0,0,81,206c-1.93,2.11-3.8,4.27-5.68,6.43a2.73,2.73,0,0,0-.56,3.47A22.92,22.92,0,0,1,76,219.11c-2.74-1.19-5.09-.19-7.41.26s-4.87-.38-6.89,1.52l-1-2.7c2.35,0.37,3.5-1.34,4.89-2.45a5.82,5.82,0,0,0,1.44-2.9c0.65-2.26-2.14-6.1-4.48-6.05a8.37,8.37,0,0,0-2.86,1.06A17.44,17.44,0,0,0,58,208.85Z"/><path d="M129.89,157.71c-1.56,2-3.7.71-5.35,2l-0.28,5.67a16.47,16.47,0,0,0-3.65-.17c-1.53.28-.64,2.12-1.34,2.78-6.34-.84-11.23-4.59-16.55-7.68l5.68-10.51c1.26-.25,2.55-0.48,3.84-0.75,1.62-.34,3.22-0.85,4.86-1,2-.22,3.38,1.06,4.78,2.23-0.27,3.67,3.34,3.29,5.08,4.86Z"/><path d="M78.57,172.27l1.23,6.8c-1.34.35-2.73,0.73-4.13,1.08A51.7,51.7,0,0,1,67,181.63c-2.69.21-5.35,0.75-8.07,0.57-2.3-.15-4.6-0.29-6.88-0.54a11.43,11.43,0,0,1-2.49-1c1.81-1.19,3.11-2.18,4.54-2.94a3.26,3.26,0,0,0,1.61-3.21c0-1.39-1-2.12-2.17-2.55a5.71,5.71,0,0,1-3.06-2c3,0.36,5.65.67,8.27,1a17.25,17.25,0,0,1,1.91.12c1.7,0.39,2.78-.22,3.41-2.11l-2.94-3.84c2.94,1,5.89,2,8.74,3.12S75.44,170.8,78.57,172.27Z"/><path d="M94.59,163.71c-5.53,2.18-11.51,2-16.3,5.12L72.16,166a3,3,0,0,0,1.3-2.92,46.6,46.6,0,0,1,.69-5.61,30.79,30.79,0,0,0,0-3.14c4.32,1.06,8.77,2.08,13.19,3.27,4,1.07,7.87,2.38,11.83,3.46,1.16,0.32,1.7,1.33,2.63,1.84,2,1.09,4.06,2.11,6.09,3.17l1.25,0.69-11.62.87Z"/><path d="M107.06,193.74c2.16-3.09,3.59-6.75,2.1-11.08l6.26,0a7.76,7.76,0,0,0,.34,5.16,17.33,17.33,0,0,1,.05,10.54c-1,3.83-2.13,7.64-3.2,11.45l-2.11,7.52-3.72,1.17c0.36-1.91-.67-3.39-2-4.9,0.53-.72,1-1.42,1.52-2.09a5.69,5.69,0,0,0,1.23-5.14,3.46,3.46,0,0,1,.47-2.18C109.88,200.6,108.64,197.37,107.06,193.74Z"/><path d="M99.39,185.61l-3.8-1.28a1.89,1.89,0,0,1-.24,0c-1.16-.6-2.46-1.87-3.43-1.65-1.58.36-2.76-.39-4.09-0.59a26.41,26.41,0,0,1-3.93-1.22A51.37,51.37,0,0,1,81.41,170l12.7-3.26A32.57,32.57,0,0,1,99.39,185.61Z"/><path d="M100.72,158.49l-13.9-4.43c0.37-2.17.7-4.39,1.13-6.6a7.25,7.25,0,0,1,.9-2.91c0.84-1.13,1.44-2.14.28-3.93C91.75,142,93.8,143,95.87,144c1.91,0.95,4,1.64,5.55,3.18a3.62,3.62,0,0,0,1.51.61c2.33,0.66,2.65,1.24,1.6,3.34-0.63,1.27-1.45,2.44-2.11,3.7S101.29,157.28,100.72,158.49Z"/><path d="M88.92,184.43l3.87,1.22c-1.54.86-1.49,2-.79,3.28a15.54,15.54,0,0,0,1.49,2.94c1.1,1.24,1,2.54.72,3.94a8.56,8.56,0,0,0-.39,2.33,19.65,19.65,0,0,1-1,7.51,7.52,7.52,0,0,0,.59,5.73,11.08,11.08,0,0,1,.47,1.32c-1.52,1.37-2.13,3.13-2.34,6.68l-2.66.94c-0.75-4.13-1.46-8.26-1.06-12.53,0.16-1.77-.33-3.6-0.22-5.39,0.29-4.66.76-9.3,1.14-14C88.83,187.21,88.85,186,88.92,184.43Z"/><path d="M69.19,235a26.69,26.69,0,0,0,11.44-1.81A21.66,21.66,0,0,0,82.11,236a18.52,18.52,0,0,0,2.22,2.22c-1.14,2.47-3.35,4.27-5.45,6.14-1.12,1-2.31,1.91-3.43,2.91-1.95,1.73-3.86,3.38-6.78,2.15a7.16,7.16,0,0,0-2.38,0c1.34-3.74,2.19-7.42,5-10.16a1.33,1.33,0,0,0-.05-2.1Z"/><path d="M129.4,252.54c-2.12-.09-4.23-0.36-6.33-0.55-0.26-1.38-5.14-12.47-10.41-16.54l1.74-3.7c3.44,2,6.79,3.94,10.13,5.91a2.91,2.91,0,0,1,1.09,1c1.22,2.3,2.29,4.68,3.59,6.94a39,39,0,0,0,3.4,4.85,4.66,4.66,0,0,0,1.82.79C135,251.49,131.54,252.63,129.4,252.54Z"/><path d="M116.26,100.61a4.43,4.43,0,0,0,0,.48c0.2,1.78-.07,3.38-1.89,4.22a4.8,4.8,0,0,1-5-.31c-2.35-1.74-4.49-3.77-6.67-5.74a1.46,1.46,0,0,1-.43-1.25c1-2.17,1.68-4.58,4.31-5.67s4.64-.92,6.64,1.08l0.16,0.17C116.36,96.49,116.36,96.49,116.26,100.61Z"/><path d="M78.67,230.26l-5.54.84-5.48.83-5.08-8.71c5,0.8,9.55-.11,14.19-1Z"/><path d="M125.72,234.94c-1.09-1.11-1.84-2-2.69-2.71-1.54-1.33-3.12-2.63-4.76-3.84a5.83,5.83,0,0,0-2-.48l3.74-6.54c3.59,2.38,6.45,5.68,10.7,7.4Z"/><path d="M97,195.79c2.45,1.51,4.8,2.15,7.36.39a21.59,21.59,0,0,1,1.23,2.71,4.49,4.49,0,0,1-1.26,4.81,3.89,3.89,0,0,1-4.29,1.13,3.7,3.7,0,0,0-1.16-.18,1.6,1.6,0,0,1-1.59-1.43A14.62,14.62,0,0,1,97,195.79Z"/><path d="M131.7,186.24l-11.48.64-1.53-4.25,9.8-2.66C128.32,182.73,130.3,184.37,131.7,186.24Z"/><path d="M100,223.22c-1.21-.93-2.24-2-3.86-1.85-1.54-2.12-.74-4.52-0.7-7,2.57,0.44,4.51,3.06,7.29,1.75C104.5,221.24,104.23,222,100,223.22Z"/><path d="M80.62,182.78c1.14,2.33,3.64.38,5,1.46l-1.56,5.85L75,186.28l0.37-2Z"/><path d="M142.63,199.94c-1,.43-2.06.86-3.09,1.26a3.73,3.73,0,0,1-4-.64,4.19,4.19,0,0,1-1.51-4,2.3,2.3,0,0,1,.37-1.1c0.65-.87,1.38-1.68,2.17-2.62Z"/><path d="M104.26,207.42c-0.06,3-1.8,4.93-2.84,7.44a16,16,0,0,1-5.1-3.39c-1.24-1.14-.94-2.93-0.73-4.88C98.23,209.16,101.15,208.45,104.26,207.42Z"/><path d="M128.6,176.57c0.13-1.31.26-2.47,0.37-3.63a5.14,5.14,0,0,1,1.78-3.53,2,2,0,0,1,2.39-.52,5.7,5.7,0,0,0,4.64.08Z"/><path d="M104.25,144.75l-7.3-4.24c2.39-.92,4.75-0.61,7.29-0.63v4.87Z"/><path d="M60.11,216.77l-1.3-5.85c0.88,0,1.81-.07,2.73-0.16a2,2,0,0,1,2.18,1,1.62,1.62,0,0,1-.5,2.29C62.24,215,61.23,215.8,60.11,216.77Z"/><path d="M128.39,101.57l6.42,5.92c-1.94.73-3.42,2.33-5.64,1.47-1.75-.68-2.07-1.22-1.72-3.06C127.7,104.59,128,103.3,128.39,101.57Z"/><path d="M126.91,139.31c-0.79,2-2.31,2.65-3.95,3.21C122,140,123.27,139,126.91,139.31Z"/><path d="M92.53,124.07l4-.82c1.07,1,1.47,1.93.44,2.8S94.21,126.07,92.53,124.07Z"/><path d="M139.23,154.07c-0.11-.59-0.19-1-0.24-1.36a1.85,1.85,0,0,1,2.68-2,1.23,1.23,0,0,1,.4,2A3.49,3.49,0,0,1,139.23,154.07Z"/><path d="M111.17,113.64c2.77-.58,3.77-0.43,3.84.74a12.81,12.81,0,0,1-.4,3.43,2.6,2.6,0,0,1-1.18.4Z"/><path d="M133.49,217.24a16.64,16.64,0,0,1-2.08.22,3.06,3.06,0,0,1-2.78-3.17,1.58,1.58,0,0,1,2.21-1.31A4.47,4.47,0,0,1,133.49,217.24Z"/><text x="0" y="303" fill="#000000" font-size="5px" font-weight="bold" font-family="'Helvetica Neue', Helvetica, Arial-Unicode, Arial, Sans-serif">Created by Zack McCune</text><text x="0" y="308" fill="#000000" font-size="5px" font-weight="bold" font-family="'Helvetica Neue', Helvetica, Arial-Unicode, Arial, Sans-serif">from the Noun Project</text></svg>